<svg width="449" height="940" viewBox="0 0 449 940" fill="none" xmlns="http://www.w3.org/2000/svg">
<g clip-path="url(#clip0_10_75)">
<path d="M0 0L368.427 304.456L0 528.321V0Z" fill="#14410C"/>
<path d="M452.16 940.232L130.388 789.508L452.16 519.366L452.16 940.232Z" fill="#352821"/>
<ellipse cx="226.08" cy="528.321" rx="226.08" ry="286.547" fill="url(#paint0_linear_10_75)"/>
<path d="M206.2 466.4C200.6 471.6 196.8 479.8 194.8 491C193.2 502.2 192.4 518.8 192.4 540.8V602H-47V587C-39.4 589.4 -32.4 590.6 -26 590.6C-18.4 590.6 -12.6 588.6 -8.6 584.6C-4.2 580.2 -2 574 -2 566V194C-2 186 -4.2 180 -8.6 176C-12.6 171.6 -18.4 169.4 -26 169.4C-32.4 169.4 -39.4 170.6 -47 173V158H88V173C80.4 170.6 73.4 169.4 67 169.4C59.4 169.4 53.4 171.6 49 176C45 180 43 186 43 194V527C43 550.6 47 568 55 579.2C63 590.4 77 596 97 596C119.4 596 136.2 593 147.4 587C158.6 580.6 166 572.8 169.6 563.6C173.2 554 176.2 540.6 178.6 523.4C180.2 510.2 182 499.4 184 491C186 482.6 189.6 474.4 194.8 466.4H206.2Z" fill="#FDF7F4"/>
<path d="M472.88 425.6V440.85C461.087 437.19 451.733 435.36 444.82 435.36C432.62 435.36 423.877 440.24 418.59 450C415.743 455.693 413.303 461.59 411.27 467.69L314.89 848.33V848.94L307.57 877H271.58L152.02 462.2C149.987 454.067 145.92 447.967 139.82 443.9C134.127 439.427 126.807 437.19 117.86 437.19C110.947 437.19 103.627 438.41 95.9 440.85V425.6H242.91V440.85C235.183 438.41 228.067 437.19 221.56 437.19C215.053 437.19 209.97 438.613 206.31 441.46C202.65 444.307 200.82 448.373 200.82 453.66C200.82 457.32 201.227 460.167 202.04 462.2L307.57 824.54L389.92 477.45L394.19 462.2C395.003 459.76 395.41 456.71 395.41 453.05C395.41 441.257 388.09 435.36 373.45 435.36C365.317 435.36 355.963 437.19 345.39 440.85V425.6H472.88Z" fill="#FDF7F4"/>
</g>
<defs>
<linearGradient id="paint0_linear_10_75" x1="226" y1="290.5" x2="452" y2="914" gradientUnits="userSpaceOnUse">
<stop stop-color="#14410C"/>
<stop offset="0.526042" stop-color="#352821"/>
</linearGradient>
<clipPath id="clip0_10_75">
<rect width="449" height="940" fill="white"/>
</clipPath>
</defs>
</svg>
