<svg width="1080" height="940" viewBox="0 0 1080 940" fill="none" xmlns="http://www.w3.org/2000/svg">
<g clip-path="url(#clip0_10_75)">
<path d="M282 0L650.427 304.456L282 528.321V0Z" fill="#14410C"/>
<path d="M734.16 940.232L412.388 789.508L734.16 519.366L734.16 940.232Z" fill="#352821"/>
<ellipse cx="508.08" cy="528.321" rx="226.08" ry="286.547" fill="url(#paint0_linear_10_75)"/>
<path d="M488.2 466.4C482.6 471.6 478.8 479.8 476.8 491C475.2 502.2 474.4 518.8 474.4 540.8V602H235V587C242.6 589.4 249.6 590.6 256 590.6C263.6 590.6 269.4 588.6 273.4 584.6C277.8 580.2 280 574 280 566V194C280 186 277.8 180 273.4 176C269.4 171.6 263.6 169.4 256 169.4C249.6 169.4 242.6 170.6 235 173V158H370V173C362.4 170.6 355.4 169.4 349 169.4C341.4 169.4 335.4 171.6 331 176C327 180 325 186 325 194V527C325 550.6 329 568 337 579.2C345 590.4 359 596 379 596C401.4 596 418.2 593 429.4 587C440.6 580.6 448 572.8 451.6 563.6C455.2 554 458.2 540.6 460.6 523.4C462.2 510.2 464 499.4 466 491C468 482.6 471.6 474.4 476.8 466.4H488.2Z" fill="#FDF7F4"/>
<path d="M754.88 425.6V440.85C743.087 437.19 733.733 435.36 726.82 435.36C714.62 435.36 705.877 440.24 700.59 450C697.743 455.693 695.303 461.59 693.27 467.69L596.89 848.33V848.94L589.57 877H553.58L434.02 462.2C431.987 454.067 427.92 447.967 421.82 443.9C416.127 439.427 408.807 437.19 399.86 437.19C392.947 437.19 385.627 438.41 377.9 440.85V425.6H524.91V440.85C517.183 438.41 510.067 437.19 503.56 437.19C497.053 437.19 491.97 438.613 488.31 441.46C484.65 444.307 482.82 448.373 482.82 453.66C482.82 457.32 483.227 460.167 484.04 462.2L589.57 824.54L671.92 477.45L676.19 462.2C677.003 459.76 677.41 456.71 677.41 453.05C677.41 441.257 670.09 435.36 655.45 435.36C647.317 435.36 637.963 437.19 627.39 440.85V425.6H754.88Z" fill="#FDF7F4"/>
</g>
<defs>
<linearGradient id="paint0_linear_10_75" x1="508" y1="290.5" x2="734" y2="914" gradientUnits="userSpaceOnUse">
<stop stop-color="#14410C"/>
<stop offset="0.526042" stop-color="#352821"/>
</linearGradient>
<clipPath id="clip0_10_75">
<rect width="1080" height="940" fill="white"/>
</clipPath>
</defs>
</svg>
