<svg width="869" height="306" viewBox="0 0 869 306" fill="none" xmlns="http://www.w3.org/2000/svg">
<g clip-path="url(#clip0_35_2)">
<path d="M171.8 206.6C168.067 210.067 165.533 215.533 164.2 223C163.133 230.467 162.6 241.533 162.6 256.2V297H3V287C8.06667 288.6 12.7333 289.4 17 289.4C22.0667 289.4 25.9333 288.067 28.6 285.4C31.5333 282.467 33 278.333 33 273V25C33 19.6667 31.5333 15.6666 28.6 13C25.9333 10.0667 22.0667 8.59999 17 8.59999C12.7333 8.59999 8.06667 9.39999 3 11V0.999996H93V11C87.9333 9.39999 83.2667 8.59999 79 8.59999C73.9333 8.59999 69.9333 10.0667 67 13C64.3333 15.6666 63 19.6667 63 25V247C63 262.733 65.6667 274.333 71 281.8C76.3333 289.267 85.6667 293 99 293C113.933 293 125.133 291 132.6 287C140.067 282.733 145 277.533 147.4 271.4C149.8 265 151.8 256.067 153.4 244.6C154.467 235.8 155.667 228.6 157 223C158.333 217.4 160.733 211.933 164.2 206.6H171.8ZM240.566 301C225.632 301 213.099 296.467 202.966 287.4C192.832 278.067 187.766 264.867 187.766 247.8C187.766 235.533 191.899 225.133 200.166 216.6C208.432 207.8 217.499 201.8 227.366 198.6C232.432 197 238.299 195.533 244.966 194.2C251.899 192.6 256.566 191.533 258.966 191C272.299 188.333 282.299 185.933 288.966 183.8C295.632 181.4 299.632 178.2 300.966 174.2C300.966 155 297.232 139 289.766 126.2C282.566 113.4 270.432 107 253.366 107C242.699 107 234.699 110.867 229.366 118.6C224.299 126.067 221.766 136.2 221.766 149C221.766 152.467 222.432 155 223.766 156.6C225.099 157.933 228.166 158.6 232.966 158.6C235.899 158.6 238.432 157.933 240.566 156.6C242.699 155.267 243.766 153.667 243.766 151.8H247.366V162.6H194.966C194.966 153 197.766 143.533 203.366 134.2C208.966 124.6 216.699 116.867 226.566 111C236.432 104.867 247.366 101.8 259.366 101.8C275.366 101.8 288.166 105.533 297.766 113C307.632 120.2 314.566 129 318.566 139.4C322.832 149.533 324.966 159.667 324.966 169.8V256.6C324.966 276.6 329.232 286.6 337.766 286.6C340.432 286.6 342.832 284.867 344.966 281.4C347.366 277.667 348.566 273.933 348.566 270.2H352.566C352.566 280.067 349.499 287.667 343.366 293C337.499 298.333 330.699 301 322.966 301C313.899 301 307.899 297 304.966 289C302.299 281 300.966 269.8 300.966 255.4V237C300.966 240.733 299.099 247.8 295.366 258.2C291.899 268.6 285.632 278.333 276.566 287.4C267.499 296.467 255.499 301 240.566 301ZM249.766 289.8C258.832 289.8 267.232 286.2 274.966 279C282.699 271.8 288.832 263.267 293.366 253.4C297.899 243.533 300.166 235.267 300.166 228.6V183C300.166 183.8 298.832 184.6 296.166 185.4C293.499 186.2 290.166 187 286.166 187.8C268.832 192.333 256.166 196.067 248.166 199C235.632 203.533 226.432 209.933 220.566 218.2C214.699 226.2 211.766 235.267 211.766 245.4C211.766 257.133 214.966 267.533 221.366 276.6C228.032 285.4 237.499 289.8 249.766 289.8ZM625.825 110.2V116.2C622.892 115.133 619.958 114.6 617.025 114.6C610.625 114.6 605.158 116.733 600.625 121C596.358 125 593.558 129.133 592.225 133.4L540.625 297H518.225L469.425 136.6C466.225 122.2 459.558 115 449.425 115C446.492 115 443.558 115.4 440.625 116.2V110.2H510.625V116.2C506.625 115.4 503.292 115 500.625 115C497.158 115 494.492 115.667 492.625 117C491.025 118.333 490.225 120.067 490.225 122.2C490.225 123 490.492 124.2 491.025 125.8L537.425 285.8L585.825 133.4C586.625 130.467 587.025 127.8 587.025 125.4C587.025 117.933 583.158 114.2 575.425 114.2C571.958 114.2 568.358 114.867 564.625 116.2V110.2H625.825ZM656.95 84.2C652.15 84.2 648.15 82.7333 644.95 79.8C641.75 76.8667 640.15 73.1333 640.15 68.6C640.15 64.0667 641.75 60.3333 644.95 57.4C648.15 54.4667 652.15 53 656.95 53C661.75 53 665.75 54.6 668.95 57.8C672.417 60.7333 674.15 64.3333 674.15 68.6C674.15 73.1333 672.55 76.8667 669.35 79.8C666.15 82.7333 662.017 84.2 656.95 84.2ZM621.75 291C626.283 292.333 629.617 293 631.75 293C636.55 293 639.617 291.4 640.95 288.2C642.283 284.733 642.95 279.667 642.95 273V130.6C638.95 131.933 634.683 132.6 630.15 132.6C628.283 132.6 625.483 132.333 621.75 131.8V121H625.35C625.35 122.867 626.283 124.467 628.15 125.8C630.283 127.133 632.683 127.8 635.35 127.8C639.083 127.8 642.417 126.333 645.35 123.4C648.283 120.467 651.883 115.933 656.15 109.8H667.75V273C667.75 279.933 668.283 285 669.35 288.2C670.683 291.4 673.483 293 677.75 293C679.883 293 683.217 292.333 687.75 291V297H621.75V291ZM791.491 301C766.157 301 747.224 292.6 734.691 275.8C722.157 258.733 715.891 233.933 715.891 201.4C715.891 184.333 718.557 168.333 723.891 153.4C729.224 138.2 737.491 125.933 748.691 116.6C760.157 107 774.157 102.2 790.691 102.2C817.624 102.2 836.824 110.467 848.291 127C859.757 143.267 865.491 162.867 865.491 185.8C865.491 189.8 865.224 195 864.691 201.4L864.291 205H743.891C744.957 264.733 761.624 294.6 793.891 294.6C808.291 294.6 818.957 290.2 825.891 281.4C832.824 272.6 836.291 262.6 836.291 251.4C836.291 246.867 835.091 243.533 832.691 241.4C830.557 239.267 827.757 238.2 824.291 238.2C821.624 238.2 819.224 239 817.091 240.6C815.224 241.933 814.291 243.667 814.291 245.8H810.691V235H861.491C862.291 245.133 859.757 255.267 853.891 265.4C848.291 275.533 840.024 283.933 829.091 290.6C818.157 297.267 805.624 300.733 791.491 301ZM827.091 199C831.891 199 834.691 198.6 835.491 197.8C836.557 196.733 837.224 194.333 837.491 190.6C837.757 187.667 837.891 183.267 837.891 177.4C837.891 157.133 834.157 140.333 826.691 127C819.224 113.667 806.691 107 789.091 107C772.024 107 760.291 115.4 753.891 132.2C747.491 149 744.157 171.267 743.891 199H827.091Z" fill="#FDF7F4"/>
<path d="M675.911 68.2698C675.911 77.8077 669.94 83.9206 657.456 85C646.057 83.9206 639.543 77.9841 639 68.2698C639 58.0159 646.963 51 657.456 51C667.948 51 676.997 60.7143 675.911 68.2698Z" fill="#352821"/>
<path d="M643 41L663.571 58L643 70.5V41Z" fill="#147405"/>
<path d="M668.246 93.5L650.28 85.084L668.246 70L668.246 93.5Z" fill="#FDF7F4"/>
<ellipse cx="655.623" cy="70.5" rx="12.6228" ry="16" fill="url(#paint0_linear_35_2)"/>
</g>
<defs>
<linearGradient id="paint0_linear_35_2" x1="655" y1="59" x2="670.002" y2="96.9994" gradientUnits="userSpaceOnUse">
<stop stop-color="#147405"/>
<stop offset="0.322917" stop-color="#3E8B30"/>
<stop offset="0.5625" stop-color="#FDF7F4"/>
<stop offset="0.984375" stop-color="#FDF7F4"/>
</linearGradient>
<clipPath id="clip0_35_2">
<rect width="869" height="306" fill="white"/>
</clipPath>
</defs>
</svg>
