<svg width="1080" height="306" viewBox="0 0 1080 306" fill="none" xmlns="http://www.w3.org/2000/svg">
<g clip-path="url(#clip0_9_12)">
<path d="M274.8 207.6C271.067 211.067 268.533 216.533 267.2 224C266.133 231.467 265.6 242.533 265.6 257.2V298H106V288C111.067 289.6 115.733 290.4 120 290.4C125.067 290.4 128.933 289.067 131.6 286.4C134.533 283.467 136 279.333 136 274V26C136 20.6667 134.533 16.6666 131.6 14C128.933 11.0667 125.067 9.59999 120 9.59999C115.733 9.59999 111.067 10.4 106 12V2H196V12C190.933 10.4 186.267 9.59999 182 9.59999C176.933 9.59999 172.933 11.0667 170 14C167.333 16.6666 166 20.6667 166 26V248C166 263.733 168.667 275.333 174 282.8C179.333 290.267 188.667 294 202 294C216.933 294 228.133 292 235.6 288C243.067 283.733 248 278.533 250.4 272.4C252.8 266 254.8 257.067 256.4 245.6C257.467 236.8 258.667 229.6 260 224C261.333 218.4 263.733 212.933 267.2 207.6H274.8ZM343.566 302C328.632 302 316.099 297.467 305.966 288.4C295.832 279.067 290.766 265.867 290.766 248.8C290.766 236.533 294.899 226.133 303.166 217.6C311.432 208.8 320.499 202.8 330.366 199.6C335.432 198 341.299 196.533 347.966 195.2C354.899 193.6 359.566 192.533 361.966 192C375.299 189.333 385.299 186.933 391.966 184.8C398.632 182.4 402.632 179.2 403.966 175.2C403.966 156 400.232 140 392.766 127.2C385.566 114.4 373.432 108 356.366 108C345.699 108 337.699 111.867 332.366 119.6C327.299 127.067 324.766 137.2 324.766 150C324.766 153.467 325.432 156 326.766 157.6C328.099 158.933 331.166 159.6 335.966 159.6C338.899 159.6 341.432 158.933 343.566 157.6C345.699 156.267 346.766 154.667 346.766 152.8H350.366V163.6H297.966C297.966 154 300.766 144.533 306.366 135.2C311.966 125.6 319.699 117.867 329.566 112C339.432 105.867 350.366 102.8 362.366 102.8C378.366 102.8 391.166 106.533 400.766 114C410.632 121.2 417.566 130 421.566 140.4C425.832 150.533 427.966 160.667 427.966 170.8V257.6C427.966 277.6 432.232 287.6 440.766 287.6C443.432 287.6 445.832 285.867 447.966 282.4C450.366 278.667 451.566 274.933 451.566 271.2H455.566C455.566 281.067 452.499 288.667 446.366 294C440.499 299.333 433.699 302 425.966 302C416.899 302 410.899 298 407.966 290C405.299 282 403.966 270.8 403.966 256.4V238C403.966 241.733 402.099 248.8 398.366 259.2C394.899 269.6 388.632 279.333 379.566 288.4C370.499 297.467 358.499 302 343.566 302ZM352.766 290.8C361.832 290.8 370.232 287.2 377.966 280C385.699 272.8 391.832 264.267 396.366 254.4C400.899 244.533 403.166 236.267 403.166 229.6V184C403.166 184.8 401.832 185.6 399.166 186.4C396.499 187.2 393.166 188 389.166 188.8C371.832 193.333 359.166 197.067 351.166 200C338.632 204.533 329.432 210.933 323.566 219.2C317.699 227.2 314.766 236.267 314.766 246.4C314.766 258.133 317.966 268.533 324.366 277.6C331.032 286.4 340.499 290.8 352.766 290.8ZM728.825 111.2V117.2C725.892 116.133 722.958 115.6 720.025 115.6C713.625 115.6 708.158 117.733 703.625 122C699.358 126 696.558 130.133 695.225 134.4L643.625 298H621.225L572.425 137.6C569.225 123.2 562.558 116 552.425 116C549.492 116 546.558 116.4 543.625 117.2V111.2H613.625V117.2C609.625 116.4 606.292 116 603.625 116C600.158 116 597.492 116.667 595.625 118C594.025 119.333 593.225 121.067 593.225 123.2C593.225 124 593.492 125.2 594.025 126.8L640.425 286.8L688.825 134.4C689.625 131.467 690.025 128.8 690.025 126.4C690.025 118.933 686.158 115.2 678.425 115.2C674.958 115.2 671.358 115.867 667.625 117.2V111.2H728.825ZM759.95 85.2C755.15 85.2 751.15 83.7333 747.95 80.8C744.75 77.8667 743.15 74.1333 743.15 69.6C743.15 65.0667 744.75 61.3333 747.95 58.4C751.15 55.4667 755.15 54 759.95 54C764.75 54 768.75 55.6 771.95 58.8C775.417 61.7333 777.15 65.3333 777.15 69.6C777.15 74.1333 775.55 77.8667 772.35 80.8C769.15 83.7333 765.017 85.2 759.95 85.2ZM724.75 292C729.283 293.333 732.617 294 734.75 294C739.55 294 742.617 292.4 743.95 289.2C745.283 285.733 745.95 280.667 745.95 274V131.6C741.95 132.933 737.683 133.6 733.15 133.6C731.283 133.6 728.483 133.333 724.75 132.8V122H728.35C728.35 123.867 729.283 125.467 731.15 126.8C733.283 128.133 735.683 128.8 738.35 128.8C742.083 128.8 745.417 127.333 748.35 124.4C751.283 121.467 754.883 116.933 759.15 110.8H770.75V274C770.75 280.933 771.283 286 772.35 289.2C773.683 292.4 776.483 294 780.75 294C782.883 294 786.217 293.333 790.75 292V298H724.75V292ZM894.491 302C869.157 302 850.224 293.6 837.691 276.8C825.157 259.733 818.891 234.933 818.891 202.4C818.891 185.333 821.557 169.333 826.891 154.4C832.224 139.2 840.491 126.933 851.691 117.6C863.157 108 877.157 103.2 893.691 103.2C920.624 103.2 939.824 111.467 951.291 128C962.757 144.267 968.491 163.867 968.491 186.8C968.491 190.8 968.224 196 967.691 202.4L967.291 206H846.891C847.957 265.733 864.624 295.6 896.891 295.6C911.291 295.6 921.957 291.2 928.891 282.4C935.824 273.6 939.291 263.6 939.291 252.4C939.291 247.867 938.091 244.533 935.691 242.4C933.557 240.267 930.757 239.2 927.291 239.2C924.624 239.2 922.224 240 920.091 241.6C918.224 242.933 917.291 244.667 917.291 246.8H913.691V236H964.491C965.291 246.133 962.757 256.267 956.891 266.4C951.291 276.533 943.024 284.933 932.091 291.6C921.157 298.267 908.624 301.733 894.491 302ZM930.091 200C934.891 200 937.691 199.6 938.491 198.8C939.557 197.733 940.224 195.333 940.491 191.6C940.757 188.667 940.891 184.267 940.891 178.4C940.891 158.133 937.157 141.333 929.691 128C922.224 114.667 909.691 108 892.091 108C875.024 108 863.291 116.4 856.891 133.2C850.491 150 847.157 172.267 846.891 200H930.091Z" fill="#352821"/>
<path d="M778.911 69.2698C778.911 78.8077 772.94 84.9206 760.456 86C749.057 84.9206 742.543 78.9841 742 69.2698C742 59.0159 749.963 52 760.456 52C770.948 52 779.997 61.7143 778.911 69.2698Z" fill="#FDF7F4"/>
<path d="M746 42L766.571 59L746 71.5V42Z" fill="#14410C"/>
<path d="M771.246 94.5L753.28 86.084L771.246 71L771.246 94.5Z" fill="#352821"/>
<ellipse cx="758.623" cy="71.5" rx="12.6228" ry="16" fill="url(#paint0_linear_9_12)"/>
</g>
<defs>
<linearGradient id="paint0_linear_9_12" x1="758" y1="60" x2="771.238" y2="93.0347" gradientUnits="userSpaceOnUse">
<stop stop-color="#14410C"/>
<stop offset="0.526042" stop-color="#352821"/>
</linearGradient>
<clipPath id="clip0_9_12">
<rect width="1080" height="306" fill="white"/>
</clipPath>
</defs>
</svg>
