<svg width="1080" height="306" viewBox="0 0 1080 306" fill="none" xmlns="http://www.w3.org/2000/svg">
<g clip-path="url(#clip0_35_2)">
<path d="M274.8 206.6C271.067 210.067 268.533 215.533 267.2 223C266.133 230.467 265.6 241.533 265.6 256.2V297H106V287C111.067 288.6 115.733 289.4 120 289.4C125.067 289.4 128.933 288.067 131.6 285.4C134.533 282.467 136 278.333 136 273V25C136 19.6667 134.533 15.6666 131.6 13C128.933 10.0667 125.067 8.59999 120 8.59999C115.733 8.59999 111.067 9.39999 106 11V0.999996H196V11C190.933 9.39999 186.267 8.59999 182 8.59999C176.933 8.59999 172.933 10.0667 170 13C167.333 15.6666 166 19.6667 166 25V247C166 262.733 168.667 274.333 174 281.8C179.333 289.267 188.667 293 202 293C216.933 293 228.133 291 235.6 287C243.067 282.733 248 277.533 250.4 271.4C252.8 265 254.8 256.067 256.4 244.6C257.467 235.8 258.667 228.6 260 223C261.333 217.4 263.733 211.933 267.2 206.6H274.8ZM343.566 301C328.632 301 316.099 296.467 305.966 287.4C295.832 278.067 290.766 264.867 290.766 247.8C290.766 235.533 294.899 225.133 303.166 216.6C311.432 207.8 320.499 201.8 330.366 198.6C335.432 197 341.299 195.533 347.966 194.2C354.899 192.6 359.566 191.533 361.966 191C375.299 188.333 385.299 185.933 391.966 183.8C398.632 181.4 402.632 178.2 403.966 174.2C403.966 155 400.232 139 392.766 126.2C385.566 113.4 373.432 107 356.366 107C345.699 107 337.699 110.867 332.366 118.6C327.299 126.067 324.766 136.2 324.766 149C324.766 152.467 325.432 155 326.766 156.6C328.099 157.933 331.166 158.6 335.966 158.6C338.899 158.6 341.432 157.933 343.566 156.6C345.699 155.267 346.766 153.667 346.766 151.8H350.366V162.6H297.966C297.966 153 300.766 143.533 306.366 134.2C311.966 124.6 319.699 116.867 329.566 111C339.432 104.867 350.366 101.8 362.366 101.8C378.366 101.8 391.166 105.533 400.766 113C410.632 120.2 417.566 129 421.566 139.4C425.832 149.533 427.966 159.667 427.966 169.8V256.6C427.966 276.6 432.232 286.6 440.766 286.6C443.432 286.6 445.832 284.867 447.966 281.4C450.366 277.667 451.566 273.933 451.566 270.2H455.566C455.566 280.067 452.499 287.667 446.366 293C440.499 298.333 433.699 301 425.966 301C416.899 301 410.899 297 407.966 289C405.299 281 403.966 269.8 403.966 255.4V237C403.966 240.733 402.099 247.8 398.366 258.2C394.899 268.6 388.632 278.333 379.566 287.4C370.499 296.467 358.499 301 343.566 301ZM352.766 289.8C361.832 289.8 370.232 286.2 377.966 279C385.699 271.8 391.832 263.267 396.366 253.4C400.899 243.533 403.166 235.267 403.166 228.6V183C403.166 183.8 401.832 184.6 399.166 185.4C396.499 186.2 393.166 187 389.166 187.8C371.832 192.333 359.166 196.067 351.166 199C338.632 203.533 329.432 209.933 323.566 218.2C317.699 226.2 314.766 235.267 314.766 245.4C314.766 257.133 317.966 267.533 324.366 276.6C331.032 285.4 340.499 289.8 352.766 289.8ZM728.825 110.2V116.2C725.892 115.133 722.958 114.6 720.025 114.6C713.625 114.6 708.158 116.733 703.625 121C699.358 125 696.558 129.133 695.225 133.4L643.625 297H621.225L572.425 136.6C569.225 122.2 562.558 115 552.425 115C549.492 115 546.558 115.4 543.625 116.2V110.2H613.625V116.2C609.625 115.4 606.292 115 603.625 115C600.158 115 597.492 115.667 595.625 117C594.025 118.333 593.225 120.067 593.225 122.2C593.225 123 593.492 124.2 594.025 125.8L640.425 285.8L688.825 133.4C689.625 130.467 690.025 127.8 690.025 125.4C690.025 117.933 686.158 114.2 678.425 114.2C674.958 114.2 671.358 114.867 667.625 116.2V110.2H728.825ZM759.95 84.2C755.15 84.2 751.15 82.7333 747.95 79.8C744.75 76.8667 743.15 73.1333 743.15 68.6C743.15 64.0667 744.75 60.3333 747.95 57.4C751.15 54.4667 755.15 53 759.95 53C764.75 53 768.75 54.6 771.95 57.8C775.417 60.7333 777.15 64.3333 777.15 68.6C777.15 73.1333 775.55 76.8667 772.35 79.8C769.15 82.7333 765.017 84.2 759.95 84.2ZM724.75 291C729.283 292.333 732.617 293 734.75 293C739.55 293 742.617 291.4 743.95 288.2C745.283 284.733 745.95 279.667 745.95 273V130.6C741.95 131.933 737.683 132.6 733.15 132.6C731.283 132.6 728.483 132.333 724.75 131.8V121H728.35C728.35 122.867 729.283 124.467 731.15 125.8C733.283 127.133 735.683 127.8 738.35 127.8C742.083 127.8 745.417 126.333 748.35 123.4C751.283 120.467 754.883 115.933 759.15 109.8H770.75V273C770.75 279.933 771.283 285 772.35 288.2C773.683 291.4 776.483 293 780.75 293C782.883 293 786.217 292.333 790.75 291V297H724.75V291ZM894.491 301C869.157 301 850.224 292.6 837.691 275.8C825.157 258.733 818.891 233.933 818.891 201.4C818.891 184.333 821.557 168.333 826.891 153.4C832.224 138.2 840.491 125.933 851.691 116.6C863.157 107 877.157 102.2 893.691 102.2C920.624 102.2 939.824 110.467 951.291 127C962.757 143.267 968.491 162.867 968.491 185.8C968.491 189.8 968.224 195 967.691 201.4L967.291 205H846.891C847.957 264.733 864.624 294.6 896.891 294.6C911.291 294.6 921.957 290.2 928.891 281.4C935.824 272.6 939.291 262.6 939.291 251.4C939.291 246.867 938.091 243.533 935.691 241.4C933.557 239.267 930.757 238.2 927.291 238.2C924.624 238.2 922.224 239 920.091 240.6C918.224 241.933 917.291 243.667 917.291 245.8H913.691V235H964.491C965.291 245.133 962.757 255.267 956.891 265.4C951.291 275.533 943.024 283.933 932.091 290.6C921.157 297.267 908.624 300.733 894.491 301ZM930.091 199C934.891 199 937.691 198.6 938.491 197.8C939.557 196.733 940.224 194.333 940.491 190.6C940.757 187.667 940.891 183.267 940.891 177.4C940.891 157.133 937.157 140.333 929.691 127C922.224 113.667 909.691 107 892.091 107C875.024 107 863.291 115.4 856.891 132.2C850.491 149 847.157 171.267 846.891 199H930.091Z" fill="#FDF7F4"/>
<path d="M778.911 68.2698C778.911 77.8077 772.94 83.9206 760.456 85C749.057 83.9206 742.543 77.9841 742 68.2698C742 58.0159 749.963 51 760.456 51C770.948 51 779.997 60.7143 778.911 68.2698Z" fill="#352821"/>
<path d="M746 41L766.571 58L746 70.5V41Z" fill="#147405"/>
<path d="M771.246 93.5L753.28 85.084L771.246 70L771.246 93.5Z" fill="#FDF7F4"/>
<ellipse cx="758.623" cy="70.5" rx="12.6228" ry="16" fill="url(#paint0_linear_35_2)"/>
</g>
<defs>
<linearGradient id="paint0_linear_35_2" x1="758" y1="59" x2="773.002" y2="96.9994" gradientUnits="userSpaceOnUse">
<stop stop-color="#147405"/>
<stop offset="0.322917" stop-color="#3E8B30"/>
<stop offset="0.5625" stop-color="#FDF7F4"/>
<stop offset="0.984375" stop-color="#FDF7F4"/>
</linearGradient>
<clipPath id="clip0_35_2">
<rect width="1080" height="306" fill="white"/>
</clipPath>
</defs>
</svg>
