<svg width="864" height="306" viewBox="0 0 864 306" fill="none" xmlns="http://www.w3.org/2000/svg">
<g clip-path="url(#clip0_45_24)">
<path d="M168.8 207.6C165.067 211.067 162.533 216.533 161.2 224C160.133 231.467 159.6 242.533 159.6 257.2V298H1.13249e-06V288C5.06667 289.6 9.73333 290.4 14 290.4C19.0667 290.4 22.9333 289.067 25.6 286.4C28.5333 283.467 30 279.333 30 274V26C30 20.6667 28.5333 16.6666 25.6 14C22.9333 11.0667 19.0667 9.59999 14 9.59999C9.73333 9.59999 5.06667 10.4 1.13249e-06 12V2H90V12C84.9333 10.4 80.2667 9.59999 76 9.59999C70.9333 9.59999 66.9333 11.0667 64 14C61.3333 16.6666 60 20.6667 60 26V248C60 263.733 62.6667 275.333 68 282.8C73.3333 290.267 82.6667 294 96 294C110.933 294 122.133 292 129.6 288C137.067 283.733 142 278.533 144.4 272.4C146.8 266 148.8 257.067 150.4 245.6C151.467 236.8 152.667 229.6 154 224C155.333 218.4 157.733 212.933 161.2 207.6H168.8ZM237.566 302C222.632 302 210.099 297.467 199.966 288.4C189.832 279.067 184.766 265.867 184.766 248.8C184.766 236.533 188.899 226.133 197.166 217.6C205.432 208.8 214.499 202.8 224.366 199.6C229.432 198 235.299 196.533 241.966 195.2C248.899 193.6 253.566 192.533 255.966 192C269.299 189.333 279.299 186.933 285.966 184.8C292.632 182.4 296.632 179.2 297.966 175.2C297.966 156 294.232 140 286.766 127.2C279.566 114.4 267.432 108 250.366 108C239.699 108 231.699 111.867 226.366 119.6C221.299 127.067 218.766 137.2 218.766 150C218.766 153.467 219.432 156 220.766 157.6C222.099 158.933 225.166 159.6 229.966 159.6C232.899 159.6 235.432 158.933 237.566 157.6C239.699 156.267 240.766 154.667 240.766 152.8H244.366V163.6H191.966C191.966 154 194.766 144.533 200.366 135.2C205.966 125.6 213.699 117.867 223.566 112C233.432 105.867 244.366 102.8 256.366 102.8C272.366 102.8 285.166 106.533 294.766 114C304.632 121.2 311.566 130 315.566 140.4C319.832 150.533 321.966 160.667 321.966 170.8V257.6C321.966 277.6 326.232 287.6 334.766 287.6C337.432 287.6 339.832 285.867 341.966 282.4C344.366 278.667 345.566 274.933 345.566 271.2H349.566C349.566 281.067 346.499 288.667 340.366 294C334.499 299.333 327.699 302 319.966 302C310.899 302 304.899 298 301.966 290C299.299 282 297.966 270.8 297.966 256.4V238C297.966 241.733 296.099 248.8 292.366 259.2C288.899 269.6 282.632 279.333 273.566 288.4C264.499 297.467 252.499 302 237.566 302ZM246.766 290.8C255.832 290.8 264.232 287.2 271.966 280C279.699 272.8 285.832 264.267 290.366 254.4C294.899 244.533 297.166 236.267 297.166 229.6V184C297.166 184.8 295.832 185.6 293.166 186.4C290.499 187.2 287.166 188 283.166 188.8C265.832 193.333 253.166 197.067 245.166 200C232.632 204.533 223.432 210.933 217.566 219.2C211.699 227.2 208.766 236.267 208.766 246.4C208.766 258.133 211.966 268.533 218.366 277.6C225.032 286.4 234.499 290.8 246.766 290.8ZM622.825 111.2V117.2C619.892 116.133 616.958 115.6 614.025 115.6C607.625 115.6 602.158 117.733 597.625 122C593.358 126 590.558 130.133 589.225 134.4L537.625 298H515.225L466.425 137.6C463.225 123.2 456.558 116 446.425 116C443.492 116 440.558 116.4 437.625 117.2V111.2H507.625V117.2C503.625 116.4 500.292 116 497.625 116C494.158 116 491.492 116.667 489.625 118C488.025 119.333 487.225 121.067 487.225 123.2C487.225 124 487.492 125.2 488.025 126.8L534.425 286.8L582.825 134.4C583.625 131.467 584.025 128.8 584.025 126.4C584.025 118.933 580.158 115.2 572.425 115.2C568.958 115.2 565.358 115.867 561.625 117.2V111.2H622.825ZM653.95 85.2C649.15 85.2 645.15 83.7333 641.95 80.8C638.75 77.8667 637.15 74.1333 637.15 69.6C637.15 65.0667 638.75 61.3333 641.95 58.4C645.15 55.4667 649.15 54 653.95 54C658.75 54 662.75 55.6 665.95 58.8C669.417 61.7333 671.15 65.3333 671.15 69.6C671.15 74.1333 669.55 77.8667 666.35 80.8C663.15 83.7333 659.017 85.2 653.95 85.2ZM618.75 292C623.283 293.333 626.617 294 628.75 294C633.55 294 636.617 292.4 637.95 289.2C639.283 285.733 639.95 280.667 639.95 274V131.6C635.95 132.933 631.683 133.6 627.15 133.6C625.283 133.6 622.483 133.333 618.75 132.8V122H622.35C622.35 123.867 623.283 125.467 625.15 126.8C627.283 128.133 629.683 128.8 632.35 128.8C636.083 128.8 639.417 127.333 642.35 124.4C645.283 121.467 648.883 116.933 653.15 110.8H664.75V274C664.75 280.933 665.283 286 666.35 289.2C667.683 292.4 670.483 294 674.75 294C676.883 294 680.217 293.333 684.75 292V298H618.75V292ZM788.491 302C763.157 302 744.224 293.6 731.691 276.8C719.157 259.733 712.891 234.933 712.891 202.4C712.891 185.333 715.557 169.333 720.891 154.4C726.224 139.2 734.491 126.933 745.691 117.6C757.157 108 771.157 103.2 787.691 103.2C814.624 103.2 833.824 111.467 845.291 128C856.757 144.267 862.491 163.867 862.491 186.8C862.491 190.8 862.224 196 861.691 202.4L861.291 206H740.891C741.957 265.733 758.624 295.6 790.891 295.6C805.291 295.6 815.957 291.2 822.891 282.4C829.824 273.6 833.291 263.6 833.291 252.4C833.291 247.867 832.091 244.533 829.691 242.4C827.557 240.267 824.757 239.2 821.291 239.2C818.624 239.2 816.224 240 814.091 241.6C812.224 242.933 811.291 244.667 811.291 246.8H807.691V236H858.491C859.291 246.133 856.757 256.267 850.891 266.4C845.291 276.533 837.024 284.933 826.091 291.6C815.157 298.267 802.624 301.733 788.491 302ZM824.091 200C828.891 200 831.691 199.6 832.491 198.8C833.557 197.733 834.224 195.333 834.491 191.6C834.757 188.667 834.891 184.267 834.891 178.4C834.891 158.133 831.157 141.333 823.691 128C816.224 114.667 803.691 108 786.091 108C769.024 108 757.291 116.4 750.891 133.2C744.491 150 741.157 172.267 740.891 200H824.091Z" fill="#352821"/>
<path d="M672.911 69.2698C672.911 78.8077 666.94 84.9206 654.456 86C643.057 84.9206 636.543 78.9841 636 69.2698C636 59.0159 643.963 52 654.456 52C664.948 52 673.997 61.7143 672.911 69.2698Z" fill="#F3E2D8"/>
<path d="M640 42L660.571 59L640 71.5V42Z" fill="#14410C"/>
<path d="M665.246 94.5L647.28 86.084L665.246 71L665.246 94.5Z" fill="#352821"/>
<ellipse cx="652.623" cy="71.5" rx="12.6228" ry="16" fill="url(#paint0_linear_45_24)"/>
</g>
<defs>
<linearGradient id="paint0_linear_45_24" x1="652" y1="60" x2="665.238" y2="93.0347" gradientUnits="userSpaceOnUse">
<stop stop-color="#14410C"/>
<stop offset="0.526042" stop-color="#352821"/>
</linearGradient>
<clipPath id="clip0_45_24">
<rect width="864" height="306" fill="white"/>
</clipPath>
</defs>
</svg>
