<svg width="868" height="306" viewBox="0 0 868 306" fill="none" xmlns="http://www.w3.org/2000/svg">
<g clip-path="url(#clip0_9_12)">
<path d="M171.8 207.6C168.067 211.067 165.533 216.533 164.2 224C163.133 231.467 162.6 242.533 162.6 257.2V298H3V288C8.06667 289.6 12.7333 290.4 17 290.4C22.0667 290.4 25.9333 289.067 28.6 286.4C31.5333 283.467 33 279.333 33 274V26C33 20.6667 31.5333 16.6666 28.6 14C25.9333 11.0667 22.0667 9.59999 17 9.59999C12.7333 9.59999 8.06667 10.4 3 12V2H93V12C87.9333 10.4 83.2667 9.59999 79 9.59999C73.9333 9.59999 69.9333 11.0667 67 14C64.3333 16.6666 63 20.6667 63 26V248C63 263.733 65.6667 275.333 71 282.8C76.3333 290.267 85.6667 294 99 294C113.933 294 125.133 292 132.6 288C140.067 283.733 145 278.533 147.4 272.4C149.8 266 151.8 257.067 153.4 245.6C154.467 236.8 155.667 229.6 157 224C158.333 218.4 160.733 212.933 164.2 207.6H171.8ZM240.566 302C225.632 302 213.099 297.467 202.966 288.4C192.832 279.067 187.766 265.867 187.766 248.8C187.766 236.533 191.899 226.133 200.166 217.6C208.432 208.8 217.499 202.8 227.366 199.6C232.432 198 238.299 196.533 244.966 195.2C251.899 193.6 256.566 192.533 258.966 192C272.299 189.333 282.299 186.933 288.966 184.8C295.632 182.4 299.632 179.2 300.966 175.2C300.966 156 297.232 140 289.766 127.2C282.566 114.4 270.432 108 253.366 108C242.699 108 234.699 111.867 229.366 119.6C224.299 127.067 221.766 137.2 221.766 150C221.766 153.467 222.432 156 223.766 157.6C225.099 158.933 228.166 159.6 232.966 159.6C235.899 159.6 238.432 158.933 240.566 157.6C242.699 156.267 243.766 154.667 243.766 152.8H247.366V163.6H194.966C194.966 154 197.766 144.533 203.366 135.2C208.966 125.6 216.699 117.867 226.566 112C236.432 105.867 247.366 102.8 259.366 102.8C275.366 102.8 288.166 106.533 297.766 114C307.632 121.2 314.566 130 318.566 140.4C322.832 150.533 324.966 160.667 324.966 170.8V257.6C324.966 277.6 329.232 287.6 337.766 287.6C340.432 287.6 342.832 285.867 344.966 282.4C347.366 278.667 348.566 274.933 348.566 271.2H352.566C352.566 281.067 349.499 288.667 343.366 294C337.499 299.333 330.699 302 322.966 302C313.899 302 307.899 298 304.966 290C302.299 282 300.966 270.8 300.966 256.4V238C300.966 241.733 299.099 248.8 295.366 259.2C291.899 269.6 285.632 279.333 276.566 288.4C267.499 297.467 255.499 302 240.566 302ZM249.766 290.8C258.832 290.8 267.232 287.2 274.966 280C282.699 272.8 288.832 264.267 293.366 254.4C297.899 244.533 300.166 236.267 300.166 229.6V184C300.166 184.8 298.832 185.6 296.166 186.4C293.499 187.2 290.166 188 286.166 188.8C268.832 193.333 256.166 197.067 248.166 200C235.632 204.533 226.432 210.933 220.566 219.2C214.699 227.2 211.766 236.267 211.766 246.4C211.766 258.133 214.966 268.533 221.366 277.6C228.032 286.4 237.499 290.8 249.766 290.8ZM625.825 111.2V117.2C622.892 116.133 619.958 115.6 617.025 115.6C610.625 115.6 605.158 117.733 600.625 122C596.358 126 593.558 130.133 592.225 134.4L540.625 298H518.225L469.425 137.6C466.225 123.2 459.558 116 449.425 116C446.492 116 443.558 116.4 440.625 117.2V111.2H510.625V117.2C506.625 116.4 503.292 116 500.625 116C497.158 116 494.492 116.667 492.625 118C491.025 119.333 490.225 121.067 490.225 123.2C490.225 124 490.492 125.2 491.025 126.8L537.425 286.8L585.825 134.4C586.625 131.467 587.025 128.8 587.025 126.4C587.025 118.933 583.158 115.2 575.425 115.2C571.958 115.2 568.358 115.867 564.625 117.2V111.2H625.825ZM656.95 85.2C652.15 85.2 648.15 83.7333 644.95 80.8C641.75 77.8667 640.15 74.1333 640.15 69.6C640.15 65.0667 641.75 61.3333 644.95 58.4C648.15 55.4667 652.15 54 656.95 54C661.75 54 665.75 55.6 668.95 58.8C672.417 61.7333 674.15 65.3333 674.15 69.6C674.15 74.1333 672.55 77.8667 669.35 80.8C666.15 83.7333 662.017 85.2 656.95 85.2ZM621.75 292C626.283 293.333 629.617 294 631.75 294C636.55 294 639.617 292.4 640.95 289.2C642.283 285.733 642.95 280.667 642.95 274V131.6C638.95 132.933 634.683 133.6 630.15 133.6C628.283 133.6 625.483 133.333 621.75 132.8V122H625.35C625.35 123.867 626.283 125.467 628.15 126.8C630.283 128.133 632.683 128.8 635.35 128.8C639.083 128.8 642.417 127.333 645.35 124.4C648.283 121.467 651.883 116.933 656.15 110.8H667.75V274C667.75 280.933 668.283 286 669.35 289.2C670.683 292.4 673.483 294 677.75 294C679.883 294 683.217 293.333 687.75 292V298H621.75V292ZM791.491 302C766.157 302 747.224 293.6 734.691 276.8C722.157 259.733 715.891 234.933 715.891 202.4C715.891 185.333 718.557 169.333 723.891 154.4C729.224 139.2 737.491 126.933 748.691 117.6C760.157 108 774.157 103.2 790.691 103.2C817.624 103.2 836.824 111.467 848.291 128C859.757 144.267 865.491 163.867 865.491 186.8C865.491 190.8 865.224 196 864.691 202.4L864.291 206H743.891C744.957 265.733 761.624 295.6 793.891 295.6C808.291 295.6 818.957 291.2 825.891 282.4C832.824 273.6 836.291 263.6 836.291 252.4C836.291 247.867 835.091 244.533 832.691 242.4C830.557 240.267 827.757 239.2 824.291 239.2C821.624 239.2 819.224 240 817.091 241.6C815.224 242.933 814.291 244.667 814.291 246.8H810.691V236H861.491C862.291 246.133 859.757 256.267 853.891 266.4C848.291 276.533 840.024 284.933 829.091 291.6C818.157 298.267 805.624 301.733 791.491 302ZM827.091 200C831.891 200 834.691 199.6 835.491 198.8C836.557 197.733 837.224 195.333 837.491 191.6C837.757 188.667 837.891 184.267 837.891 178.4C837.891 158.133 834.157 141.333 826.691 128C819.224 114.667 806.691 108 789.091 108C772.024 108 760.291 116.4 753.891 133.2C747.491 150 744.157 172.267 743.891 200H827.091Z" fill="#352821"/>
<path d="M675.911 69.2698C675.911 78.8077 669.94 84.9206 657.456 86C646.057 84.9206 639.543 78.9841 639 69.2698C639 59.0159 646.963 52 657.456 52C667.948 52 676.997 61.7143 675.911 69.2698Z" fill="#FDF7F4"/>
<path d="M643 42L663.571 59L643 71.5V42Z" fill="#14410C"/>
<path d="M668.246 94.5L650.28 86.084L668.246 71L668.246 94.5Z" fill="#352821"/>
<ellipse cx="655.623" cy="71.5" rx="12.6228" ry="16" fill="url(#paint0_linear_9_12)"/>
</g>
<defs>
<linearGradient id="paint0_linear_9_12" x1="655" y1="60" x2="668.238" y2="93.0347" gradientUnits="userSpaceOnUse">
<stop stop-color="#14410C"/>
<stop offset="0.526042" stop-color="#352821"/>
</linearGradient>
<clipPath id="clip0_9_12">
<rect width="868" height="306" fill="white"/>
</clipPath>
</defs>
</svg>
